<?xml version="1.0" standalone="no"?>
<!DOCTYPE svg PUBLIC "-//W3C//DTD SVG 20010904//EN"
 "http://www.w3.org/TR/2001/REC-SVG-20010904/DTD/svg10.dtd">
<svg version="1.0" xmlns="http://www.w3.org/2000/svg"
 width="720.000000pt" height="96.000000pt" viewBox="0 0 720.000000 96.000000"
 preserveAspectRatio="xMidYMid meet">
<metadata>
Created by potrace 1.16, written by Peter Selinger 2001-2019
</metadata>
<g transform="translate(0.000000,96.000000) scale(0.100000,-0.100000)"
fill="#000000" stroke="none">
<path d="M340 944 c-14 -7 -46 -23 -72 -35 -93 -44 -197 -159 -227 -251 -7
-21 -16 -38 -19 -38 -12 0 -14 -184 -2 -230 7 -25 12 -53 13 -62 1 -10 5 -18
9 -18 4 0 8 -5 8 -11 0 -16 66 -111 97 -141 15 -14 40 -37 56 -51 15 -15 27
-24 27 -20 0 3 10 -1 23 -9 12 -8 39 -20 60 -27 20 -7 37 -16 37 -20 0 -4 58
-8 130 -8 72 0 130 4 130 8 0 4 17 13 38 20 20 7 47 19 60 27 12 8 22 12 22 9
0 -2 25 18 55 46 62 56 116 133 134 190 7 20 16 37 21 37 4 0 8 58 7 130 0 72
-4 130 -8 130 -4 0 -13 17 -20 37 -31 96 -132 207 -227 252 -26 12 -59 28 -73
35 -34 17 -245 17 -279 0z m268 -13 c81 -25 135 -58 195 -118 62 -61 96 -119
119 -202 23 -83 23 -159 0 -242 -67 -241 -314 -386 -552 -324 -85 22 -151 60
-211 120 -147 149 -179 358 -83 543 30 59 112 144 172 179 104 62 245 79 360
44z"/>
<path d="M414 830 c-65 -13 -128 -47 -177 -97 -137 -136 -137 -350 0 -486 136
-137 350 -137 486 0 198 198 93 531 -185 583 -57 11 -66 11 -124 0z m76 -45
c0 -8 9 -15 20 -15 11 0 20 5 20 10 0 6 5 10 11 10 6 0 10 -38 9 -107 -1 -60
-1 -170 -1 -245 1 -132 2 -138 21 -138 25 0 59 68 60 116 0 35 6 45 25 38 15
-6 4 -80 -19 -125 -14 -27 -12 -69 3 -69 32 0 107 135 97 175 -8 31 13 48 37
30 10 -7 14 -16 9 -19 -5 -3 -13 -23 -17 -43 -8 -44 -30 -90 -57 -119 -11 -12
-18 -30 -16 -40 2 -15 -4 -20 -27 -22 -16 -2 -43 -9 -60 -16 -53 -24 -95 -30
-95 -13 0 9 6 18 13 20 7 3 5 6 -5 6 -12 1 -18 -6 -18 -19 0 -11 -7 -20 -15
-20 -8 0 -15 9 -15 20 0 14 -6 20 -22 19 -13 0 -17 -3 -10 -6 6 -2 12 -11 12
-20 0 -17 -46 -11 -92 13 -15 8 -41 14 -58 14 -24 0 -30 4 -30 21 0 12 -11 34
-25 51 -14 16 -32 55 -41 86 -9 31 -20 62 -25 67 -5 7 0 16 10 22 15 10 22 8
36 -7 11 -12 12 -19 5 -22 -29 -9 47 -162 86 -175 19 -6 26 45 10 75 -21 40
-25 117 -6 117 11 0 16 -15 20 -51 6 -55 32 -104 55 -104 15 0 18 73 16 383
-1 65 3 107 9 107 6 0 10 -4 10 -10 0 -5 9 -10 20 -10 11 0 20 7 20 15 0 8 5
15 10 15 6 0 10 -7 10 -15z"/>
<path d="M6680 954 c-214 -36 -353 -157 -405 -355 -64 -238 90 -493 335 -560
58 -15 172 -15 230 0 167 45 290 171 335 342 63 235 -93 498 -330 557 -52 13
-133 21 -165 16z m114 -24 c171 -28 316 -158 361 -324 23 -86 17 -199 -16
-280 -21 -51 -28 -60 -53 -63 -22 -3 -27 -1 -23 11 4 9 2 16 -3 16 -6 0 -10
-9 -10 -21 0 -11 -5 -17 -10 -14 -6 4 -10 3 -9 -2 4 -20 -2 -33 -15 -33 -7 0
-19 -7 -26 -15 -10 -12 -10 -18 0 -30 15 -19 32 -1 23 23 -5 11 -1 13 16 7 20
-6 22 -4 16 14 -5 17 -3 20 12 15 13 -4 15 -3 5 4 -11 7 -8 10 12 14 14 3 26
2 26 -3 0 -24 -108 -122 -170 -153 -132 -66 -263 -68 -397 -6 -186 86 -292
307 -242 506 12 46 18 51 36 33 8 -8 17 -8 33 1 21 11 22 10 16 -6 -68 -176
18 -385 192 -471 51 -25 68 -28 157 -28 89 0 106 3 157 28 79 39 143 104 181
185 27 59 31 77 31 152 0 71 -4 95 -27 145 -16 33 -35 67 -43 76 -16 18 -9 49
12 49 8 0 14 -10 14 -22 0 -19 -2 -20 -11 -8 -9 12 -10 12 -7 1 7 -25 28 -24
28 1 0 18 2 20 10 8 7 -10 10 -11 10 -2 0 7 -7 15 -15 18 -8 4 -15 12 -15 18
0 7 -5 17 -12 24 -9 9 -16 8 -28 -3 -15 -14 -19 -14 -30 0 -11 13 -10 14 5 9
14 -6 16 -4 10 6 -5 9 -4 11 3 6 7 -4 12 -3 12 2 0 19 -29 20 -45 2 -17 -19
-16 -20 14 -37 17 -10 31 -24 31 -30 0 -7 -27 7 -61 32 -136 100 -306 102
-441 5 -31 -22 -71 -63 -89 -90 -32 -49 -33 -50 -56 -35 -13 9 -28 13 -33 10
-16 -10 -12 5 11 41 24 39 26 40 49 19 15 -14 18 -14 30 0 11 13 10 14 -5 9
-14 -6 -16 -4 -10 6 5 9 4 11 -3 6 -7 -4 -12 -2 -12 4 0 6 -6 8 -12 4 -7 -4 7
14 32 40 24 25 45 46 45 46 1 0 1 -10 1 -22 -1 -25 32 -38 44 -17 11 17 2 37
-18 41 -13 3 -9 8 14 21 29 15 44 14 44 -4 0 -4 -10 -5 -21 -2 -19 5 -20 4
-10 -16 7 -11 14 -21 17 -21 3 0 2 5 -2 11 -4 8 1 9 16 4 19 -6 22 -4 17 9 -4
9 -10 22 -13 30 -4 11 10 19 49 32 58 18 74 13 90 -26 3 -10 6 -6 7 10 1 14 2
28 1 33 -1 10 32 9 103 -3z m-115 -216 c12 -19 21 -44 21 -54 0 -18 -6 -19
-57 -16 -32 1 -69 8 -83 13 -14 6 -39 14 -57 17 -17 4 -36 13 -42 20 -8 10 -1
13 32 13 23 0 60 9 82 21 58 31 79 28 104 -14z m194 14 c23 -12 61 -21 84 -21
56 0 41 -21 -28 -37 -27 -7 -51 -15 -54 -19 -2 -4 -31 -8 -65 -9 -69 -1 -76
11 -39 72 25 42 43 45 102 14z m-313 -287 c0 -13 8 -21 23 -23 17 -2 23 -11
25 -35 3 -30 1 -33 -22 -33 -19 0 -26 -5 -26 -20 0 -16 -7 -20 -30 -20 -23 0
-30 4 -30 20 0 15 -7 20 -26 20 -23 0 -25 3 -22 33 2 24 8 33 26 35 14 2 22
10 22 23 0 14 7 19 30 19 23 0 30 -5 30 -19z"/>
<path d="M1074 696 c-31 -31 -34 -40 -34 -90 0 -32 7 -70 15 -85 14 -28 68
-61 99 -61 8 0 19 -6 23 -14 9 -14 46 -36 62 -36 24 0 10 38 -16 45 l-26 6 31
19 c39 24 62 68 62 120 0 84 -47 130 -131 130 -45 0 -55 -4 -85 -34z m145 -11
c9 -9 17 -40 19 -77 3 -53 1 -67 -18 -90 -26 -34 -80 -38 -109 -9 -42 42 -35
153 12 186 25 18 73 13 96 -10z"/>
<path d="M1320 715 c0 -8 6 -15 14 -15 11 0 15 -22 18 -95 3 -82 6 -97 26
-117 18 -18 34 -23 77 -23 84 0 98 20 103 140 3 72 8 95 18 95 8 0 14 7 14 15
0 11 -12 15 -45 15 -33 0 -45 -4 -45 -15 0 -8 7 -15 15 -15 12 0 15 -15 15
-72 0 -96 -6 -114 -42 -129 -25 -10 -35 -10 -56 2 -32 17 -40 43 -41 132 -1
61 1 67 19 67 11 0 20 7 20 15 0 12 -13 15 -55 15 -42 0 -55 -3 -55 -15z"/>
<path d="M1620 715 c0 -8 7 -15 15 -15 12 0 15 -18 15 -105 0 -87 -3 -105 -15
-105 -8 0 -15 -4 -15 -10 0 -6 42 -10 105 -10 l105 0 0 30 c0 20 -5 30 -15 30
-8 0 -15 -9 -15 -20 0 -18 -7 -20 -55 -20 l-55 0 0 50 0 50 40 0 c29 0 40 -4
40 -15 0 -8 7 -15 15 -15 11 0 15 12 15 45 0 33 -4 45 -15 45 -8 0 -15 -7 -15
-15 0 -11 -11 -15 -40 -15 l-40 0 0 40 0 40 55 0 c48 0 55 -2 55 -20 0 -11 7
-20 15 -20 10 0 15 11 15 35 l0 35 -105 0 c-87 0 -105 -3 -105 -15z"/>
<path d="M1880 695 c0 -19 5 -35 10 -35 6 0 10 9 10 20 0 18 7 20 61 20 l61 0
-48 -67 c-26 -38 -61 -86 -76 -107 -15 -21 -28 -43 -28 -48 0 -4 50 -8 110 -8
l110 0 0 30 c0 20 -5 30 -15 30 -8 0 -15 -9 -15 -20 0 -18 -7 -20 -66 -20
l-66 0 48 68 c26 37 61 85 76 106 45 63 42 66 -72 66 l-100 0 0 -35z"/>
<path d="M2172 714 c-51 -35 -69 -137 -35 -195 39 -66 140 -77 196 -21 54 54
48 166 -11 212 -31 25 -117 27 -150 4z m131 -36 c26 -30 24 -127 -4 -162 -43
-55 -121 -24 -134 53 -18 106 77 181 138 109z"/>
<path d="M2400 715 c0 -8 9 -15 20 -15 19 0 20 -7 20 -105 0 -98 -1 -105 -20
-105 -11 0 -20 -4 -20 -10 0 -5 23 -10 50 -10 28 0 50 5 50 10 0 6 -9 10 -20
10 -18 0 -20 7 -20 85 0 47 2 85 5 85 2 0 38 -45 80 -100 42 -55 82 -100 90
-100 12 0 15 21 15 120 0 100 3 120 15 120 8 0 15 7 15 15 0 11 -12 15 -45 15
-33 0 -45 -4 -45 -15 0 -8 7 -15 15 -15 12 0 15 -16 15 -81 l0 -82 -72 96
c-69 91 -75 96 -110 97 -27 0 -38 -4 -38 -15z"/>
<path d="M2879 715 c-15 -8 -34 -30 -43 -49 -48 -101 19 -213 122 -203 44 5
92 38 92 64 0 22 -31 15 -52 -12 -25 -32 -77 -34 -103 -5 -23 25 -32 110 -15
149 22 55 103 62 130 11 17 -31 40 -25 40 10 0 24 -6 33 -26 40 -37 14 -115
12 -145 -5z"/>
<path d="M3210 695 c0 -24 5 -35 15 -35 8 0 15 9 15 20 0 16 7 20 35 20 l35 0
0 -105 c0 -98 -1 -105 -20 -105 -11 0 -20 -4 -20 -10 0 -5 25 -10 55 -10 30 0
55 5 55 10 0 6 -7 10 -15 10 -12 0 -15 18 -15 105 l0 105 35 0 c28 0 35 -4 35
-20 0 -11 5 -20 10 -20 6 0 10 9 10 20 0 37 25 20 63 -43 40 -69 52 -147 22
-147 -8 0 -15 -4 -15 -10 0 -5 23 -10 50 -10 28 0 50 5 50 10 0 6 -7 10 -15
10 -11 0 -15 11 -15 42 0 45 63 168 87 168 7 0 13 7 13 15 0 11 -11 15 -40 15
-29 0 -40 -4 -40 -15 0 -8 5 -15 11 -15 5 0 0 -18 -12 -40 -13 -22 -26 -40
-29 -40 -3 0 -16 18 -29 40 -12 22 -17 40 -12 40 6 0 11 7 11 15 0 13 -25 15
-165 15 l-165 0 0 -35z"/>
<path d="M3800 715 c0 -8 6 -15 14 -15 11 0 15 -22 18 -95 3 -82 6 -97 26
-117 18 -18 34 -23 77 -23 84 0 98 20 103 140 3 72 8 95 18 95 8 0 14 7 14 15
0 11 -12 15 -45 15 -33 0 -45 -4 -45 -15 0 -8 7 -15 15 -15 12 0 15 -15 15
-72 0 -96 -6 -114 -42 -129 -25 -10 -35 -10 -56 2 -32 17 -40 43 -41 132 -1
61 1 67 19 67 11 0 20 7 20 15 0 12 -13 15 -55 15 -42 0 -55 -3 -55 -15z"/>
<path d="M4100 715 c0 -8 7 -15 15 -15 12 0 15 -18 15 -105 0 -87 -3 -105 -15
-105 -8 0 -15 -4 -15 -10 0 -5 20 -10 45 -10 25 0 45 5 45 10 0 6 -7 10 -15
10 -12 0 -15 16 -15 87 l0 86 76 -99 c42 -54 82 -100 90 -102 11 -3 14 18 14
117 0 114 1 121 20 121 11 0 20 7 20 15 0 11 -12 15 -50 15 -38 0 -50 -4 -50
-15 0 -8 7 -15 15 -15 12 0 15 -15 15 -77 -1 -63 -3 -75 -13 -63 -7 9 -38 50
-71 93 -53 69 -62 77 -92 77 -24 0 -34 -5 -34 -15z"/>
<path d="M4520 715 c0 -8 6 -15 13 -15 8 0 31 -47 57 -115 38 -102 46 -115 67
-115 12 0 23 4 23 9 0 5 18 57 41 115 41 106 41 106 75 106 l34 0 0 -105 c0
-98 -1 -105 -20 -105 -11 0 -20 -4 -20 -10 0 -6 43 -10 110 -10 l110 0 0 30
c0 20 -5 30 -15 30 -8 0 -15 -9 -15 -20 0 -18 -7 -20 -55 -20 l-55 0 0 50 0
50 40 0 c29 0 40 -4 40 -15 0 -8 5 -15 10 -15 6 0 10 20 10 45 0 25 -4 45 -10
45 -5 0 -10 -7 -10 -15 0 -11 -11 -15 -40 -15 l-40 0 0 40 0 40 55 0 c48 0 55
-2 55 -20 0 -11 7 -20 15 -20 10 0 15 11 15 35 l0 35 -150 0 c-123 0 -150 -3
-150 -14 0 -8 4 -16 9 -18 5 -1 -5 -41 -24 -88 -33 -85 -33 -85 -44 -55 -6 17
-21 54 -33 84 -16 39 -18 56 -10 59 7 2 12 10 12 18 0 10 -14 14 -50 14 -38 0
-50 -4 -50 -15z"/>
<path d="M5050 715 c0 -8 7 -15 15 -15 12 0 15 -18 15 -105 0 -87 -3 -105 -15
-105 -8 0 -15 -4 -15 -10 0 -5 25 -10 55 -10 30 0 55 5 55 10 0 6 -9 10 -20
10 -17 0 -20 7 -20 46 0 45 0 45 33 42 27 -3 36 -11 60 -55 26 -48 31 -53 63
-53 19 0 34 5 34 10 0 6 -6 10 -14 10 -8 0 -28 24 -44 54 -27 51 -28 54 -10
65 27 17 25 85 -4 105 -32 22 -188 23 -188 1z"/>
<path d="M5349 712 c-27 -23 -30 -75 -5 -100 9 -9 38 -24 63 -33 54 -18 73
-40 57 -66 -8 -12 -24 -18 -50 -18 -31 0 -41 5 -49 23 -15 34 -37 28 -33 -10
3 -30 7 -34 46 -42 62 -13 117 5 131 44 20 58 0 81 -106 120 -42 16 -46 55 -8
72 30 13 75 -3 75 -27 0 -8 7 -15 15 -15 21 0 20 56 -1 64 -34 13 -112 6 -135
-12z"/>
<path d="M5680 695 c0 -19 5 -35 10 -35 6 0 10 9 10 20 0 16 7 20 35 20 l35 0
0 -105 c0 -87 -3 -105 -15 -105 -8 0 -15 -4 -15 -10 0 -5 25 -10 55 -10 30 0
55 5 55 10 0 6 -9 10 -20 10 -19 0 -20 7 -20 105 l0 105 35 0 c28 0 35 -4 35
-20 0 -11 7 -20 15 -20 8 0 15 9 15 20 0 34 17 22 54 -39 28 -45 36 -69 36
-105 0 -34 -4 -46 -15 -46 -8 0 -15 -4 -15 -10 0 -5 25 -10 55 -10 30 0 55 5
55 10 0 6 -7 10 -15 10 -11 0 -15 12 -15 48 0 37 8 60 36 105 19 31 42 57 50
57 8 0 14 7 14 15 0 11 -11 15 -41 15 -38 0 -41 -2 -36 -22 4 -14 -3 -37 -17
-60 l-22 -37 -27 45 c-14 24 -22 44 -17 44 6 0 10 7 10 15 0 13 -24 15 -160
15 l-160 0 0 -35z"/>
<path d="M2015 315 l0 -75 53 0 c46 0 54 3 64 25 8 18 8 28 0 38 -6 7 -9 23
-5 35 9 34 -14 52 -66 52 l-46 0 0 -75z"/>
<path d="M4875 315 l0 -75 53 0 c46 0 54 3 64 25 8 18 8 28 0 38 -6 7 -9 23
-5 35 9 34 -14 52 -66 52 l-46 0 0 -75z"/>
<path d="M5139 363 c-4 -50 4 -110 17 -123 12 -12 18 -12 34 -2 14 9 26 9 39
3 10 -6 34 -8 53 -5 l35 6 -7 45 c-8 54 -19 66 -56 61 -21 -2 -29 -9 -29 -23
-1 -24 -13 -45 -37 -64 -17 -12 -18 -10 -18 28 0 30 4 41 15 41 8 0 15 5 15
10 0 6 -7 10 -15 10 -8 0 -15 7 -15 15 0 21 -30 19 -31 -2z"/>
<path d="M3933 335 c-3 -9 -2 -19 2 -23 4 -4 10 -1 12 6 5 14 43 17 43 3 0 -5
-13 -11 -29 -14 -30 -6 -44 -27 -35 -51 8 -22 22 -24 104 -16 41 4 69 8 63 9
-16 1 -17 53 -1 69 22 22 30 12 26 -33 -3 -40 -1 -45 17 -45 18 0 20 5 17 43
-2 23 -8 47 -14 54 -11 13 -98 16 -98 2 0 -5 5 -9 10 -9 6 0 10 -18 10 -40 0
-33 -3 -40 -20 -40 -16 0 -20 7 -20 38 0 21 -5 43 -12 50 -17 17 -67 15 -75
-3z"/>
</g>
</svg>
